<svg width="2000" height="2000" viewBox="0 0 2000 2000" fill="none" xmlns="http://www.w3.org/2000/svg">
<rect width="2000" height="2000" rx="1000" fill="#FDE161"/>
<path fill-rule="evenodd" clip-rule="evenodd" d="M900 1995.06C932.891 1998.33 966.25 2000 1000 2000C1552.28 2000 2000 1552.28 2000 1000C2000 447.715 1552.28 0 1000 0C966.25 0 932.891 1.67194 900 4.93752C1405.33 55.11 1800 481.465 1800 1000C1800 1518.53 1405.33 1944.89 900 1995.06Z" fill="#F2CF52"/>
<rect x="200" y="201" width="1600" height="1600" rx="800" fill="#F2BD52"/>
<path d="M672.4 1416.2V617.8H530V525H898C917.2 525 935.333 524.467 952.4 523.4C969.467 522.333 986.533 521.8 1003.6 521.8C1141.2 521.8 1242.53 540.467 1307.6 577.8C1373.73 614.067 1406.8 677.533 1406.8 768.2C1406.8 831.133 1390.8 879.667 1358.8 913.8C1327.87 947.933 1288.93 971.933 1242 985.8C1309.2 1002.87 1358.8 1031.67 1390.8 1072.2C1423.87 1111.67 1440.4 1166.6 1440.4 1237C1440.4 1287.13 1431.87 1329.8 1414.8 1365C1398.8 1400.2 1374.27 1429 1341.2 1451.4C1308.13 1472.73 1266 1488.2 1214.8 1497.8C1163.6 1507.4 1103.87 1512.2 1035.6 1512.2C1017.47 1512.2 997.733 1511.67 976.4 1510.6C955.067 1509.53 932.133 1509 907.6 1509H530V1416.2H672.4ZM941.2 1029V1427.4C967.867 1430.6 999.333 1432.2 1035.6 1432.2C1047.33 1432.2 1058 1432.2 1067.6 1432.2C1078.27 1431.13 1087.33 1430.07 1094.8 1429C1103.33 1427.93 1110.8 1426.33 1117.2 1424.2C1121.47 1408.2 1125.73 1390.6 1130 1371.4C1133.2 1354.33 1135.87 1334.6 1138 1312.2C1141.2 1288.73 1142.8 1262.07 1142.8 1232.2C1142.8 1204.47 1140.67 1178.33 1136.4 1153.8C1133.2 1128.2 1129.47 1106.33 1125.2 1088.2C1120.93 1066.87 1115.6 1047.13 1109.2 1029H941.2ZM1003.6 603.4C981.2 603.4 960.4 605 941.2 608.2V945.8H1106C1108.13 930.867 1110.27 913.8 1112.4 894.6C1114.53 878.6 1116.13 860.467 1117.2 840.2C1119.33 818.867 1120.4 795.933 1120.4 771.4C1120.4 746.867 1118.8 725 1115.6 705.8C1113.47 685.533 1110.8 667.933 1107.6 653C1103.33 637 1099.6 622.6 1096.4 609.8C1088.93 608.733 1079.87 607.667 1069.2 606.6C1060.67 605.533 1050.53 605 1038.8 605C1027.07 603.933 1015.33 603.4 1003.6 603.4Z" fill="black"/>
<path d="M901 438C901 382.772 945.772 338 1001 338V338C1056.23 338 1101 382.772 1101 438V538H901V438Z" fill="black"/>
<path d="M901 1500H1101V1600C1101 1655.23 1056.23 1700 1001 1700V1700C945.772 1700 901 1655.23 901 1600V1500Z" fill="black"/>
</svg>
